# xmcd CD database file
#
# Track frame offsets:
#	150
#	46843
#	105842
#	119868
#	152686
#	184050
#
# Disc length: 2653 seconds
#
# Revision: 0
# Processed by: cddbd v1.5.2PL0 Copyright (c) Steve Scherf et al.
# Submitted via: CDex 1.70beta3
#
DISCID=450a5b06
DTITLE=Frode Gjerstad Trio - East of West
DYEAR=2011
DGENRE=Jazz
TTITLE0=Summersault
TTITLE1=Floral Dune
TTITLE2=Dead Bird's Nest
TTITLE3=Winter Bone
TTITLE4=Letters
TTITLE5=East of West
EXTD=YEAR: 2011
EXTT0=
EXTT1=
EXTT2=
EXTT3=
EXTT4=
EXTT5=
PLAYORDER=
